<svg width="57" height="52" viewBox="0 0 57 52" fill="none" xmlns="http://www.w3.org/2000/svg">
<path fill-rule="evenodd" clip-rule="evenodd" d="M39.8337 14.9999V9.33325C39.8337 4.63883 36.0281 0.833252 31.3337 0.833252H8.66699C3.97257 0.833252 0.166992 4.63883 0.166992 9.33325V14.9999C0.166992 19.6943 3.97257 23.4999 8.66699 23.4999H31.3337C36.0281 23.4999 39.8337 19.6943 39.8337 14.9999ZM35.5837 9.33325V14.9999C35.5837 17.3471 33.6809 19.2499 31.3337 19.2499H8.66699C6.31978 19.2499 4.41699 17.3471 4.41699 14.9999L4.41699 9.33325C4.41699 6.98604 6.31978 5.08325 8.66699 5.08325L31.3337 5.08325C33.6809 5.08325 35.5837 6.98604 35.5837 9.33325Z" fill="#F6F6F6"/>
<path fill-rule="evenodd" clip-rule="evenodd" d="M56.8337 43.3333V37.6666C56.8337 32.9722 53.0281 29.1666 48.3337 29.1666H8.66699C3.97257 29.1666 0.166992 32.9722 0.166992 37.6666V43.3333C0.166992 48.0277 3.97257 51.8333 8.66699 51.8333H48.3337C53.0281 51.8333 56.8337 48.0277 56.8337 43.3333ZM52.5837 37.6666V43.3333C52.5837 45.6805 50.6809 47.5833 48.3337 47.5833H8.66699C6.31978 47.5833 4.41699 45.6805 4.41699 43.3333L4.41699 37.6666C4.41699 35.3194 6.31978 33.4166 8.66699 33.4166L48.3337 33.4166C50.6809 33.4166 52.5837 35.3194 52.5837 37.6666Z" fill="#F6F6F6"/>
</svg>
