<svg width="36" height="56" viewBox="0 0 36 56" fill="none" xmlns="http://www.w3.org/2000/svg">
<path fill-rule="evenodd" clip-rule="evenodd" d="M21.774 3.22753C19.9103 -0.12932 15.0845 -0.143334 13.2343 3.25256C6.27698 16.022 1.30447 28.7751 0.932559 38.5028C0.745588 43.3932 1.71068 47.8301 4.51707 51.0579C7.36131 54.3292 11.743 55.9582 17.4998 55.9582C23.8513 55.9582 28.5916 54.3712 31.6122 51.1055C34.6298 47.8429 35.5254 43.3428 35.1786 38.4306C34.4914 28.6986 28.8302 15.9373 21.774 3.22753ZM16.9663 5.28591C17.2002 4.85653 17.8074 4.83871 18.0582 5.29045C25.1173 18.0053 30.3249 30.0311 30.9391 38.73C31.243 43.0333 30.3975 46.1596 28.4922 48.2197C26.5897 50.2765 23.2251 51.7082 17.4998 51.7082C12.5229 51.7082 9.50664 50.3193 7.72433 48.2694C5.90417 46.1759 5.01418 42.9882 5.17946 38.6652C5.51204 29.9662 10.0734 17.9372 16.9663 5.28591Z" fill="#F6F6F6"/>
</svg>
